<svg xmlns="http://www.w3.org/2000/svg" width="28" height="35.386" viewBox="0 0 28 35.386">
  <g id="Group_266" data-name="Group 266" transform="translate(-2073.654 -682.339)">
    <path id="Path_120" data-name="Path 120" d="M2101.075,710.5a5.5,5.5,0,0,1-1.671-2.275c-1.439-3.047-1.742-7.339-1.742-10.4,0-.013,0-.026,0-.04a10.041,10.041,0,0,0-5.91-9.106v-2.4a3.943,3.943,0,0,0-3.936-3.942h-.326a3.943,3.943,0,0,0-3.936,3.942v2.4a10.04,10.04,0,0,0-5.911,9.146c0,3.064-.3,7.356-1.741,10.4a5.5,5.5,0,0,1-1.671,2.275,1.008,1.008,0,0,0-.553,1.146,1.055,1.055,0,0,0,1.04.81h7.6a5.337,5.337,0,0,0,10.674,0h7.6a1.055,1.055,0,0,0,1.04-.81A1.008,1.008,0,0,0,2101.075,710.5Zm-15.447-24.218a1.866,1.866,0,0,1,1.862-1.865h.326a1.866,1.866,0,0,1,1.862,1.865V688a10.046,10.046,0,0,0-4.05,0v-1.722Zm2.025,29.367a3.271,3.271,0,0,1-3.264-3.192h6.527A3.271,3.271,0,0,1,2087.653,715.648Zm4.175-5.269H2077.08a10.952,10.952,0,0,0,.543-.953c1.389-2.74,2.094-6.644,2.094-11.6a7.936,7.936,0,1,1,15.871,0c0,.013,0,.026,0,.038,0,4.94.708,8.829,2.094,11.562a10.891,10.891,0,0,0,.543.953Z" fill="#4e4e4e"/>
  </g>
</svg>
