<svg id="Group_265" data-name="Group 265" xmlns="http://www.w3.org/2000/svg" width="24.099" height="23.969" viewBox="0 0 24.099 23.969">
  <g id="Group_25" data-name="Group 25" transform="translate(0 0)">
    <g id="Group_20" data-name="Group 20" transform="translate(0 0)">
      <g id="Group_19" data-name="Group 19">
        <path id="Path_5" data-name="Path 5" d="M444.522,41.638h-10.1a6.99,6.99,0,0,0-7,6.963V58.644a6.99,6.99,0,0,0,7,6.963h10.1a6.99,6.99,0,0,0,7-6.963V48.6A6.989,6.989,0,0,0,444.522,41.638Zm5.118,17.006a5.11,5.11,0,0,1-5.118,5.09h-10.1a5.11,5.11,0,0,1-5.118-5.09V48.6a5.11,5.11,0,0,1,5.118-5.09h10.1a5.11,5.11,0,0,1,5.118,5.09Z" transform="translate(-427.423 -41.638)" fill="#4e4e4e"/>
      </g>
    </g>
    <g id="Group_22" data-name="Group 22" transform="translate(5.554 5.524)">
      <g id="Group_21" data-name="Group 21" transform="translate(0 0)">
        <path id="Path_6" data-name="Path 6" d="M448.367,56.086a6.46,6.46,0,1,0,6.5,6.461A6.485,6.485,0,0,0,448.367,56.086Zm0,11.048a4.588,4.588,0,1,1,4.613-4.588A4.605,4.605,0,0,1,448.367,67.134Z" transform="translate(-441.872 -56.086)" fill="#4e4e4e"/>
      </g>
    </g>
    <g id="Group_24" data-name="Group 24" transform="translate(17.698 4.494)">
      <g id="Group_23" data-name="Group 23" transform="translate(0)">
        <ellipse id="Ellipse_1" data-name="Ellipse 1" cx="0.941" cy="0.936" rx="0.941" ry="0.936" fill="#4e4e4e"/>
      </g>
    </g>
  </g>
</svg>
