<svg xmlns="http://www.w3.org/2000/svg" viewBox="0 0 139.64 52.42">
    <defs>
        <style>.cls-1{fill:#003bff;}</style>
    </defs>
    <g id="Layer_2" data-name="Layer 2"><g id="Layer_2-2" data-name="Layer 2">
    <path d="M4.75,51.54H0V.67H4.75Z"/><path class="cls-1" d="M23.28,34.31V.67H28V51.54H24.14L15.83,21.23l-.61-3.34V51.54H10.48V.67h3.88L22.8,31.46Z"/>
    <path class="cls-1" d="M42,.67A7.37,7.37,0,0,1,49,5q2,3.76,2,10.26V36.91q0,6.54-1.94,10.2a7.48,7.48,0,0,1-7,4.43H33.12V.67ZM37.86,5.13V47.07H42a3,3,0,0,0,2.71-1.93c1-1.8,1.47-4.55,1.47-8.23V15.29Q46.21,5.14,42,5.13Z"/>
    <path d="M56.05,35.75l4.74-.17v3q0,5.73,1,7.7C62.28,47.4,63.4,48,65.12,48s3-.65,3.57-2,.76-3.7.76-7.38a12.27,12.27,0,0,0-1.78-6.78,13.87,13.87,0,0,0-4-3.8,19.21,19.21,0,0,1-5.29-5,16.45,16.45,0,0,1-2.38-9.17q0-6.3,1.11-9,2-4.84,8-4.85,5.61,0,7.68,4.29,1.4,2.88,1.4,9.53v2.84l-4.75.18v-3q0-5.73-1-7.7C68,5,66.84,4.46,65.12,4.46s-3,.66-3.56,2-.77,3.71-.77,7.39a12.28,12.28,0,0,0,1.79,6.78,14,14,0,0,0,3.94,3.8,19.21,19.21,0,0,1,5.29,5A16.43,16.43,0,0,1,74.2,38.6q0,6.3-1.12,9-2,4.84-8,4.85-5.6,0-7.67-4.29c-.94-1.92-1.4-5.1-1.4-9.53Z"/>
    <path d="M97.06.67V5.13H89.45V51.54H84.71V5.13H77.06V.67Z"/>
    <path d="M117.76,17q0,5.2-2.07,7.77a8.87,8.87,0,0,1-1.91,1.76,7,7,0,0,1,1.91,1.65q2.07,2.57,2.07,7.77V51.54H113V35.93q0-3.87-1.28-5.7a3.31,3.31,0,0,0-2.9-1.33h-4.17V51.54H99.93V.67h8.91q8.93,0,8.92,11.53Zm-13.09,7h4.17a3.31,3.31,0,0,0,2.9-1.33Q113,20.85,113,17V12.2q0-7.06-4.18-7.07h-4.17Z"/>
    <path d="M132.54,51.54h-4.75v-21L120.63.67h4.84L129.38,17a47.39,47.39,0,0,1,.77,5.31,48.1,48.1,0,0,1,.73-5.2L134.8.67h4.84l-7.1,29.78Z"/>
    <rect x="10.48" y="27.66" width="40.47" height="7.09"/></g></g>
</svg>