<svg xmlns="http://www.w3.org/2000/svg" width="28.13" height="23.094" viewBox="0 0 28.13 23.094">
  <g id="Group_267" data-name="Group 267" transform="translate(-2361.626 -702.406)">
    <path id="Path_121" data-name="Path 121" d="M2362.039,722.947a16.5,16.5,0,0,0,8.857,2.552,16.2,16.2,0,0,0,16.432-16.469,6.726,6.726,0,0,0,2.428-4.554.889.889,0,0,0-1.338-.766,3.674,3.674,0,0,1-2.987.5,6.343,6.343,0,0,0-7.513-1.012,6.1,6.1,0,0,0-3.314,5.721,14.719,14.719,0,0,1-9.547-5.215.889.889,0,0,0-1.452.118,6.189,6.189,0,0,0-.139,6.114.924.924,0,0,0-.772.92,6.265,6.265,0,0,0,2.183,4.732.888.888,0,0,0-.228.92,6.379,6.379,0,0,0,3.609,3.866,10.345,10.345,0,0,1-5.633.94.888.888,0,0,0-.585,1.631Zm9.1-2.267a.889.889,0,0,0-.522-1.592,4.633,4.633,0,0,1-3.639-1.893,6.272,6.272,0,0,0,1.213-.194.889.889,0,0,0-.057-1.728,4.559,4.559,0,0,1-3.455-3.1,6.124,6.124,0,0,0,1.355.18.889.889,0,0,0,.506-1.63,4.413,4.413,0,0,1-1.891-4.818,16.514,16.514,0,0,0,10.94,4.883.887.887,0,0,0,.908-1.086,4.334,4.334,0,0,1,2.262-4.935,4.542,4.542,0,0,1,5.552.843c.529.558,2.315.579,3.224.367a5.724,5.724,0,0,1-1.621,1.906.889.889,0,0,0-.377.771,14.419,14.419,0,0,1-14.641,15.07,14.915,14.915,0,0,1-4.786-.784,12,12,0,0,0,5.028-2.257Z" fill="#4e4e4e"/>
  </g>
</svg>
